<svg width="33" height="33" viewBox="0 0 33 33" fill="none" xmlns="http://www.w3.org/2000/svg">
<path d="M29.5376 12.2788C29.3992 10.4657 27.8772 9.07106 26.0785 8.93159L24.8333 8.79212C24.2799 8.79212 23.7264 8.51319 23.4497 7.95532L22.2045 6.00277C21.5127 4.88703 20.2674 4.1897 19.0222 4.1897H13.7645C12.3809 4.1897 11.274 4.88703 10.5822 6.00277L9.33693 7.95532C9.06021 8.37372 8.50676 8.65265 7.95332 8.79212L6.70808 8.93159C4.90939 9.07106 3.52579 10.4657 3.24907 12.2788C3.11071 14.0919 2.83398 16.6023 2.83398 18.5548C2.83398 20.5074 3.11071 23.0178 3.24907 24.8309C3.38743 26.6439 4.90939 28.0386 6.70808 28.1781C9.47529 28.3176 13.3494 28.5965 16.3933 28.5965C19.4372 28.5965 23.3113 28.3176 26.0785 28.1781C27.8772 28.0386 29.3992 26.6439 29.5376 24.8309C29.6759 23.0178 29.9526 20.5074 29.9526 18.5548C29.9526 16.6023 29.6759 13.9524 29.5376 12.2788ZM16.3933 23.1573C13.4877 23.1573 11.1356 20.7863 11.1356 17.8575C11.1356 14.9287 13.4877 12.5577 16.3933 12.5577C19.2989 12.5577 21.651 14.9287 21.651 17.8575C21.651 20.7863 19.2989 23.1573 16.3933 23.1573Z" fill="white"/>
</svg>
