<svg width="20" height="18" viewBox="0 0 20 18" fill="none" xmlns="http://www.w3.org/2000/svg">
<path fill-rule="evenodd" clip-rule="evenodd" d="M18.5303 1.53033C18.8232 1.23744 18.8232 0.762563 18.5303 0.46967C18.2374 0.176777 17.7626 0.176777 17.4697 0.46967L1.46967 16.4697C1.17678 16.7626 1.17678 17.2374 1.46967 17.5303C1.76256 17.8232 2.23744 17.8232 2.53033 17.5303L5.56535 14.4953C6.88317 15.1032 8.39185 15.5 10 15.5C12.6178 15.5 14.972 14.4486 16.6684 13.1466C17.5177 12.4948 18.2146 11.7709 18.7035 11.0663C19.1831 10.3752 19.5 9.64847 19.5 9C19.5 8.35153 19.1831 7.62481 18.7035 6.93368C18.2146 6.22913 17.5177 5.50519 16.6684 4.85335C16.3978 4.64567 16.1104 4.44437 15.808 4.25269L18.5303 1.53033ZM13.1287 6.93196L12.0307 8.02994C12.1713 8.32366 12.25 8.65264 12.25 9C12.25 10.2426 11.2426 11.25 10 11.25C9.65264 11.25 9.32366 11.1713 9.02994 11.0307L7.93196 12.1287C8.52478 12.5213 9.23569 12.75 10 12.75C12.0711 12.75 13.75 11.0711 13.75 9C13.75 8.23569 13.5213 7.52478 13.1287 6.93196Z" fill="#B6B7BB"/>
<path d="M10.6692 5.30953C10.753 5.32462 10.8395 5.2998 10.8997 5.2396L12.8493 3.29007C12.9816 3.15772 12.9267 2.93281 12.7464 2.88252C11.879 2.64055 10.9571 2.5 10 2.5C7.38223 2.5 5.02801 3.55139 3.33162 4.85335C2.48232 5.50519 1.78544 6.22913 1.29649 6.93368C0.816861 7.62481 0.5 8.35153 0.5 9C0.5 9.64847 0.816861 10.3752 1.29649 11.0663C1.7138 11.6676 2.28257 12.2831 2.96829 12.8558C3.06614 12.9375 3.20993 12.9294 3.30008 12.8393L6.2396 9.89974C6.2998 9.83954 6.32462 9.75296 6.30953 9.66917C6.27042 9.45203 6.25 9.2284 6.25 9C6.25 6.92893 7.92893 5.25 10 5.25C10.2284 5.25 10.452 5.27042 10.6692 5.30953Z" fill="#B6B7BB"/>
</svg>
