<svg xmlns="http://www.w3.org/2000/svg" width="160" height="44.887" viewBox="0 0 160 44.887">
    <defs>
        <style>
            .cls-2{fill:#bbbdbf}.cls-3{fill:#fff}.cls-5{fill:#e6e7e8}.cls-6{fill:#e98f38}.cls-7{fill:#ece84e}.cls-8{fill:#a6a8ab}
        </style>
    </defs>
    <g id="Logo" transform="translate(0 -1.329)">
        <g id="Group_10423" data-name="Group 10423" transform="translate(0 1.329)">
            <path id="Path_92" data-name="Path 92" class="cls-2" d="M15.534 51.2 2.623 45.046v12.591l12.911 6.155z" transform="translate(-2.023 -35.053)"/>
            <path id="Path_93" data-name="Path 93" class="cls-3" d="M.279 42.516a.6.6 0 0 0-.279.507v12.592a.6.6 0 0 0 .342.54l12.909 6.155a.6.6 0 0 0 .858-.54V49.178a.6.6 0 0 0-.341-.541L.859 42.482a.605.605 0 0 0-.58.034zm.92 1.458c1.454.692 11.108 5.3 11.712 5.583V60.82L1.2 55.236z" transform="translate(0 -33.031)"/>
            <path id="Path_94" data-name="Path 94" d="m37.618 78.129-12.91-6.156-10.193 9.395 12.91 6.155z" transform="translate(-11.197 -55.826)" style="fill:#da322b"/>
            <path id="Path_95" data-name="Path 95" class="cls-3" d="m22.276 69.512-10.191 9.394a.6.6 0 0 0-.187.529.6.6 0 0 0 .335.453l12.911 6.155a.6.6 0 0 0 .664-.1L36 76.549a.6.6 0 0 0-.148-.981l-12.91-6.156a.6.6 0 0 0-.666.1zm.515 1.157 11.745 5.6-9.242 8.518-11.745-5.6z" transform="translate(-9.173 -53.805)"/>
            <path id="Path_96" data-name="Path 96" class="cls-2" d="m27.424 119.231-12.91-6.155v12.59l12.91 6.155z" transform="translate(-11.197 -87.534)"/>
            <path id="Path_97" data-name="Path 97" class="cls-3" d="M12.17 110.54a.6.6 0 0 0-.28.507v12.591a.6.6 0 0 0 .342.54l12.911 6.155a.6.6 0 0 0 .857-.541V117.2a.6.6 0 0 0-.341-.542L12.748 110.5a.6.6 0 0 0-.578.04zm.92 1.46c1.453.692 11.108 5.3 11.711 5.584v11.262L13.09 123.26z" transform="translate(-9.172 -85.505)"/>
            <path id="Path_98" data-name="Path 98" class="cls-5" d="m81.187 98.9-10.193 9.4v12.59l10.193-9.39z" transform="translate(-54.767 -76.601)"/>
            <path id="Path_99" data-name="Path 99" class="cls-3" d="m78.756 96.443-10.191 9.394a.6.6 0 0 0-.193.441v12.591a.6.6 0 0 0 1.006.44l10.192-9.394a.6.6 0 0 0 .193-.44V96.883a.6.6 0 0 0-1.007-.44zm-.192 1.809v10.962c-.335.307-7.394 6.812-8.993 8.286v-10.96z" transform="translate(-52.744 -74.58)"/>
            <path id="Path_100" data-name="Path 100" class="cls-5" d="m125.78 57.814-10.191 9.392V79.8l10.191-9.4z" transform="translate(-89.169 -44.903)"/>
            <path id="Path_101" data-name="Path 101" class="cls-3" d="m123.35 55.35-10.194 9.392a.6.6 0 0 0-.192.44v12.59a.6.6 0 0 0 1.005.441l10.193-9.392a.6.6 0 0 0 .193-.442V55.79a.6.6 0 0 0-1.006-.44zm-.194 1.809v10.96l-8.992 8.287v-10.96z" transform="translate(-87.144 -42.879)"/>
            <path id="Path_102" data-name="Path 102" class="cls-6" d="M82.209 37.041 69.3 30.886l-10.193 9.391 12.91 6.156z" transform="translate(-45.597 -24.13)"/>
            <path id="Path_103" data-name="Path 103" class="cls-3" d="m66.868 28.421-10.193 9.391a.6.6 0 0 0 .148.983l12.911 6.156a.6.6 0 0 0 .664-.1l10.192-9.394a.6.6 0 0 0 .187-.53.611.611 0 0 0-.336-.453L67.533 28.32a.6.6 0 0 0-.665.101zm.515 1.156 11.744 5.6-9.243 8.518-11.745-5.6 9.243-8.518z" transform="translate(-43.572 -22.106)"/>
            <path id="Path_104" data-name="Path 104" class="cls-6" d="m25.725 10.109-12.91-6.156-10.192 9.392L15.534 19.5z" transform="translate(-2.023 -3.353)"/>
            <path id="Path_105" data-name="Path 105" class="cls-3" d="M10.387 1.488.195 10.881a.6.6 0 0 0 .148.981l12.909 6.156a.6.6 0 0 0 .665-.1L24.11 8.524A.594.594 0 0 0 24.3 8a.6.6 0 0 0-.333-.452L11.05 1.388a.6.6 0 0 0-.663.1zm.513 1.156 11.744 5.6c-1.106 1.02-8.716 8.034-9.243 8.518-.646-.31-10.379-4.949-11.743-5.6z" transform="translate(-.001 -1.329)"/>
            <path id="Path_106" data-name="Path 106" class="cls-3" d="m39.624 30.263-1.659-.768 5.971-5.509 1.688.8z" transform="translate(-29.287 -18.806)"/>
            <path id="Path_107" data-name="Path 107" class="cls-3" d="m96.893 52.959-4.607-2.229-2.552 2.413 4.649 2.162-1.335 1.206L88.36 54.2c-1.194-.649-1.34-1.379-.468-2.19l2.308-2.152a2.366 2.366 0 0 1 1.387-.649 3.008 3.008 0 0 1 1.635.313l4.83 2.323z" transform="translate(-67.372 -38.253)"/>
            <path id="Path_108" data-name="Path 108" class="cls-7" d="M47.2 95.127a2.324 2.324 0 0 1-2.885.591l-4.666-2.328 5.751-5.228 4.476 2.275a1.045 1.045 0 0 1 .7.936 2.652 2.652 0 0 1-.905 1.461zm-2.048-.836 2.992-2.722-2.434-1.275-2.984 2.712z" transform="translate(-30.586 -68.314)"/>
        </g>
        <g id="Group_10427" data-name="Group 10427" transform="translate(45.373 14.289)">
            <path id="Path_109" data-name="Path 109" class="cls-7" d="m339.779 68.277 1.034 2.975 3.149.064-2.51 1.9.912 3.015-2.585-1.8-2.585 1.8.912-3.015-2.51-1.9 3.149-.064z" transform="translate(-304.261 -65.935)"/>
            <g id="Group_10425" data-name="Group 10425">
                <g id="Group_10424" data-name="Group 10424">
                    <path id="Path_110" data-name="Path 110" class="cls-8" d="M198.508 59.1h2.463v12.16h-2.463z" transform="translate(-198.508 -58.854)"/>
                    <path id="Path_111" data-name="Path 111" class="cls-8" d="M239.894 60.433a1.166 1.166 0 0 0-1.14-.605 1.13 1.13 0 0 0-.752.248 1.632 1.632 0 0 0-.465.8 6.877 6.877 0 0 0-.236 1.448q-.068.895-.068 2.189a21.3 21.3 0 0 0 .094 2.233 4.975 4.975 0 0 0 .288 1.32 1.207 1.207 0 0 0 .492.631 1.4 1.4 0 0 0 .687.162 1.623 1.623 0 0 0 .6-.11 1.026 1.026 0 0 0 .483-.444 2.9 2.9 0 0 0 .322-.938 8.59 8.59 0 0 0 .119-1.593h2.463a11.039 11.039 0 0 1-.153 1.874 4.241 4.241 0 0 1-.571 1.551 2.836 2.836 0 0 1-1.176 1.038 4.456 4.456 0 0 1-1.968.374 4.641 4.641 0 0 1-2.2-.443 2.984 2.984 0 0 1-1.253-1.277 5.629 5.629 0 0 1-.56-1.991 25.589 25.589 0 0 1 0-5.1 5.64 5.64 0 0 1 .563-2 3.14 3.14 0 0 1 1.251-1.3 4.415 4.415 0 0 1 2.2-.468 4.257 4.257 0 0 1 2.069.424 2.893 2.893 0 0 1 1.132 1.077 3.742 3.742 0 0 1 .468 1.413 11.651 11.651 0 0 1 .094 1.423h-2.463a4.446 4.446 0 0 0-.32-1.936z" transform="translate(-226.482 -58.03)"/>
                    <path id="Path_112" data-name="Path 112" class="cls-8" d="M290.627 59.1a4.389 4.389 0 0 1 2.061.417 2.96 2.96 0 0 1 1.215 1.192 5.3 5.3 0 0 1 .588 1.865 17.529 17.529 0 0 1 .153 2.435 17.3 17.3 0 0 1-.194 2.784 5.3 5.3 0 0 1-.674 1.951 2.938 2.938 0 0 1-1.276 1.141 4.779 4.779 0 0 1-2.025.375h-3.864V59.1zm-.472 10.363a2.075 2.075 0 0 0 1.029-.221 1.512 1.512 0 0 0 .616-.734 4.29 4.29 0 0 0 .305-1.348q.075-.837.075-2.082 0-1.041-.067-1.826a4.551 4.551 0 0 0-.279-1.305 1.613 1.613 0 0 0-.626-.785 2.028 2.028 0 0 0-1.108-.262h-1.031v8.565z" transform="translate(-266.473 -58.854)"/>
                </g>
            </g>
            <g id="Group_10426" data-name="Group 10426" transform="translate(42.07 .237)">
                <path id="Path_113" data-name="Path 113" class="cls-8" d="M386.909 68.063h.051l1.806-9h2.539l-2.795 12.168h-3.153l-2.794-12.168h2.624z" transform="translate(-382.563 -59.065)"/>
                <path id="Path_114" data-name="Path 114" class="cls-8" d="M435.725 59.065h2.454v12.168h-2.454z" transform="translate(-423.574 -59.065)"/>
                <path id="Path_115" data-name="Path 115" class="cls-8" d="M471.677 61.076h-4.346v2.862h4.09v2.011h-4.09v3.272h4.516v2.011h-6.97V59.065h6.8z" transform="translate(-446.062 -59.065)"/>
                <path id="Path_116" data-name="Path 116" class="cls-8" d="M516.114 61.076h-2.659v10.157H511V61.076h-2.659v-2.011h7.772z" transform="translate(-479.593 -59.065)"/>
                <path id="Path_117" data-name="Path 117" class="cls-8" d="M560.886 67.4h.034v-8.335h2.25v12.168h-2.8l-3-8.521h-.034v8.521h-2.249V59.065h2.829z" transform="translate(-515.657 -59.065)"/>
                <path id="Path_118" data-name="Path 118" class="cls-8" d="m607.574 59.065 3.226 12.168h-2.556l-.562-2.573h-3.238l-.562 2.573h-2.562l3.221-12.168zm-.324 7.584-1.176-5.471h-.034l-1.176 5.471z" transform="translate(-551.318 -59.065)"/>
                <path id="Path_119" data-name="Path 119" class="cls-8" d="m656.377 59.065 1.739 8.589h.034l1.755-8.589h3.63v12.168h-2.25v-9.714h-.034l-2.165 9.714h-1.908l-2.164-9.714h-.034v9.714h-2.25V59.065z" transform="translate(-590.978 -59.065)"/>
            </g>
        </g>
    </g>
</svg>
